<?xml version="1.0" encoding="UTF-8" standalone="no"?>
<svg width="72px" height="73px" viewBox="0 0 72 73" version="1.1" xmlns="http://www.w3.org/2000/svg" xmlns:xlink="http://www.w3.org/1999/xlink">
    <!-- Generator: Sketch 46.2 (44496) - http://www.bohemiancoding.com/sketch -->
    <title>send</title>
    <desc>Created with Sketch.</desc>
    <defs></defs>
    <g id="Welcome" stroke="none" stroke-width="1" fill="none" fill-rule="evenodd">
        <g id="Desktop" transform="translate(-217.000000, -2124.000000)" fill-rule="nonzero" fill="#8F9CA6">
            <g id="Contact" transform="translate(217.000000, 1967.000000)">
                <g id="send" transform="translate(0.000000, 157.000000)">
                    <path d="M71.3629688,0.227604061 C70.9655625,-0.0303523884 70.4639531,-0.0718545907 70.0291406,0.117490474 L0.841640625,30.2549366 C0.330328125,30.4778188 0,30.9800373 0,31.5347974 C0,32.0895575 0.330328125,32.591776 0.841640625,32.8146582 L34.59375,47.5167785 L34.59375,62.6026194 C34.59375,63.1675804 34.9361719,63.6769256 35.4612656,63.8933799 C35.6353594,63.9652052 35.8183125,64 35.9995781,64 C36.3652031,64 36.7245,63.8583056 36.9935156,63.5915457 L47.5209844,53.1478029 L70.0291406,62.9521043 C70.2098438,63.0307768 70.4020781,63.069624 70.5936094,63.069624 C70.8629063,63.069624 71.1306563,62.9927681 71.3629688,62.8419907 C71.760375,62.5838945 72,62.1439992 72,61.6722435 L72,1.39735132 C72,0.925595646 71.7605156,0.485560511 71.3629688,0.227604061 Z M35.1419063,44.7039912 L31.3462969,43.0506105 L44.6495625,25.942201 C45.1244531,25.3315457 45.0111094,24.4539907 44.3965781,23.9820953 C43.7820469,23.5101998 42.8989219,23.6228287 42.4240313,24.233484 L28.6912969,41.8941384 L4.9089375,31.5347974 L66.1123125,4.87515204 L35.1419063,44.7039912 Z M37.40625,59.232976 L37.40625,48.741862 L44.7548906,51.9428417 L37.40625,59.232976 Z M69.1875,59.5339718 L37.7969063,45.8604633 L69.1875,5.49125712 L69.1875,59.5339718 Z" id="Shape"></path>
                    <path d="M49.4260096,59.2943315 C48.7805924,58.8182012 47.853082,58.9317335 47.3543236,59.5480513 L38.3082911,70.7273807 C37.8095327,71.3436986 37.9285731,72.2293911 38.5739904,72.7056624 C38.8427911,72.904097 39.1606259,73 39.4759499,73 C39.9176989,73 40.3547217,72.8115788 40.6456764,72.4519425 L49.6917089,61.2726131 C50.1904673,60.6562953 50.0714269,59.7706027 49.4260096,59.2943315 Z" id="Shape"></path>
                    <path d="M18.6131494,70.2082536 C18.1777346,69.8717347 17.5517261,69.9515073 17.2147979,70.3864224 L17.2085179,70.3945889 C16.8715898,70.8296035 16.9514357,71.4550366 17.3868506,71.7916551 C17.5683731,71.9319792 17.78309,72 17.9961124,72 C18.2940645,72 18.5887271,71.8671453 18.7852021,71.6134863 L18.7914821,71.6053198 C19.1284102,71.1704048 19.0485643,70.5448721 18.6131494,70.2082536 Z" id="Shape"></path>
                    <path d="M32.4005734,56.2862039 C31.7266073,55.8231786 30.7580702,55.9336904 30.2372502,56.5328674 L21.3219278,66.7905861 C20.8011078,67.3897632 20.9254137,68.2508231 21.5993798,68.7138484 C21.8800705,68.9067642 22.2119641,69 22.5412358,69 C23.0025248,69 23.4588785,68.8168191 23.762703,68.4671849 L32.6780254,58.2094662 C33.1988454,57.6104263 33.0746937,56.7492293 32.4005734,56.2862039 Z" id="Shape"></path>
                    <path d="M46.6143542,21.2075668 C46.1802257,20.8722358 45.5560666,20.9516041 45.2200345,21.3849549 L45.2079091,21.4006301 C44.8719763,21.8338817 44.9515864,22.4570218 45.3856155,22.792452 C45.5667012,22.9323385 45.7807838,23 45.9932762,23 C46.2902487,23 46.5840408,22.8676534 46.7799353,22.6150639 L46.7920607,22.5993886 C47.1279935,22.1661371 47.0484827,21.542997 46.6143542,21.2075668 Z" id="Shape"></path>
                </g>
            </g>
        </g>
    </g>
</svg>